<svg width="24" height="24" viewBox="0 0 1025 1024" xmlns="http://www.w3.org/2000/svg"><rect x="0" y="0" width="1025" height="1024" rx="8" fill="none"/><svg xmlns="http://www.w3.org/2000/svg" viewBox="0 0 1025 1024" fill="#FFFFFF" x="0" y="0" width="1025" height="1024"><path fill="#FFFFFF" d="M896.428 640h-768q-53 0-90.5-37.5T.428 512t37.5-90.5t90.5-37.5h768q53 0 90.5 37.5t37.5 90.5t-37.5 90.5t-90.5 37.5zm0-384h-768q-53 0-90.5-37.5T.428 128t37.5-90.5t90.5-37.5h768q53 0 90.5 37.5t37.5 90.5t-37.5 90.5t-90.5 37.5zm-768 512h768q53 0 90.5 37.5t37.5 90.5t-37.5 90.5t-90.5 37.5h-768q-53 0-90.5-37.5T.428 896t37.5-90.5t90.5-37.5z"/></svg></svg>